<svg xmlns="http://www.w3.org/2000/svg" viewBox="0 0 256 256">
  <defs><clipPath id="c"><circle cx="128" cy="128" r="128"/></clipPath></defs>
  <g clip-path="url(#c)">
    <rect width="256" height="256" fill="#0F5132"/>
    <circle cx="200" cy="56" r="70" fill="#14633F"/>
    <!-- roof -->
    <path d="M40 124 L128 50 L216 124" fill="none" stroke="#C8102E" stroke-width="16" stroke-linecap="round" stroke-linejoin="round"/>
    <!-- house body -->
    <path d="M64 118 L128 66 L192 118 V202 Q192 212 182 212 H74 Q64 212 64 202 Z" fill="#F7F3E8"/>
    <!-- dashboard tiles -->
    <rect x="80" y="122" width="42" height="34" rx="6" fill="#1F7A4D"/>
    <g fill="#F7F3E8"><rect x="88" y="140" width="6" height="10" rx="1.5"/><rect x="98" y="134" width="6" height="16" rx="1.5"/><rect x="108" y="129" width="6" height="21" rx="1.5"/></g>
    <rect x="134" y="122" width="42" height="34" rx="6" fill="#E8B83D"/>
    <circle cx="155" cy="139" r="10" fill="#C8102E"/>
    <path d="M152 130.5 Q156.5 139 152 147.5" fill="none" stroke="#FFFFFF" stroke-width="1.6" stroke-dasharray="2 1.6"/>
    <rect x="80" y="164" width="42" height="34" rx="6" fill="#5FA27F"/>
    <g fill="#F7F3E8"><rect x="88" y="173" width="26" height="5" rx="2.5"/><rect x="88" y="184" width="18" height="5" rx="2.5"/></g>
    <rect x="134" y="164" width="42" height="34" rx="6" fill="#0F5132"/>
    <path d="M142 190 L152 180 L160 186 L170 174" fill="none" stroke="#E8B83D" stroke-width="4" stroke-linecap="round" stroke-linejoin="round"/>
  </g>
</svg>
